<svg width="183" height="184" viewBox="0 0 183 184" fill="none" xmlns="http://www.w3.org/2000/svg">
<circle cx="91.5" cy="84.5" r="67.5" fill="url(#paint0_linear_8545_902)"/>
<g filter="url(#filter0_d_8545_902)">
<ellipse cx="91.5" cy="83.9999" rx="62.5" ry="63.0165" fill="#0E0F11"/>
</g>
<path d="M104 79.9962C103.967 79.9962 103.926 79.983 103.888 79.9453C103.851 79.9075 103.838 79.8668 103.838 79.8337V75.667C103.838 72.3227 103.382 69.1531 101.449 66.8398C99.469 64.469 96.2343 63.3295 91.5 63.3295C86.7657 63.3295 83.531 64.469 81.5506 66.8398C79.618 69.1531 79.1625 72.3227 79.1625 75.667V79.8337C79.1625 79.8668 79.1494 79.9075 79.1116 79.9453C79.0739 79.983 79.0332 79.9962 79 79.9962C78.9668 79.9962 78.9261 79.983 78.8884 79.9453C78.8506 79.9075 78.8375 79.8668 78.8375 79.8337V75.667C78.8375 72.7056 79.2085 69.5642 80.8876 67.1751C82.4953 64.8877 85.5161 63.0045 91.5 63.0045C97.4839 63.0045 100.505 64.8877 102.112 67.1751C103.792 69.5642 104.163 72.7056 104.163 75.667V79.8337C104.163 79.8668 104.149 79.9075 104.112 79.9453C104.074 79.983 104.033 79.9962 104 79.9962Z" fill="white" stroke="white" stroke-width="2.8"/>
<path d="M101.916 104.996H81.0827C76.5371 104.996 74.0582 104.282 72.6377 102.861C71.2172 101.441 70.5035 98.9619 70.5035 94.4163V90.2497C70.5035 85.7041 71.2172 83.2252 72.6377 81.8047C74.0582 80.3842 76.5371 79.6705 81.0827 79.6705H101.916C106.462 79.6705 108.94 80.3842 110.361 81.8047C111.781 83.2252 112.495 85.7041 112.495 90.2497V94.4163C112.495 98.9619 111.781 101.441 110.361 102.861C108.94 104.282 106.462 104.996 101.916 104.996ZM81.0827 79.9955C79.1934 79.9955 77.5897 80.0833 76.2636 80.3633C74.9218 80.6465 73.7637 81.1468 72.8678 82.0446C71.972 82.9422 71.4743 84.1008 71.193 85.4409C70.915 86.7656 70.8285 88.3662 70.8285 90.2497V94.4163C70.8285 96.2999 70.915 97.9005 71.193 99.2251C71.4743 100.565 71.972 101.724 72.8678 102.621C73.7637 103.519 74.9218 104.02 76.2636 104.303C77.5897 104.583 79.1934 104.671 81.0827 104.671H101.916C103.805 104.671 105.409 104.583 106.735 104.303C108.077 104.02 109.235 103.519 110.131 102.621C111.027 101.724 111.524 100.565 111.806 99.2251C112.084 97.9005 112.17 96.2999 112.17 94.4163V90.2497C112.17 88.3662 112.084 86.7656 111.806 85.4409C111.524 84.1008 111.027 82.9422 110.131 82.0446C109.235 81.1468 108.077 80.6465 106.735 80.3633C105.409 80.0833 103.805 79.9955 101.916 79.9955H81.0827Z" fill="white" stroke="white" stroke-width="2.8"/>
<path d="M82.9121 92.9579L82.8943 92.9504L82.8763 92.9435C82.8188 92.9214 82.7626 92.8917 82.6691 92.8125C82.5415 92.6624 82.482 92.4936 82.482 92.3335C82.482 92.2749 82.4965 92.187 82.541 92.0803L82.5484 92.0624L82.5554 92.0444C82.5767 91.9889 82.6052 91.9346 82.6785 91.8466C82.7664 91.7733 82.8208 91.7448 82.8763 91.7235L82.9096 91.7106L82.9423 91.6961C83.1365 91.6098 83.4406 91.6525 83.631 91.822C83.7022 91.9069 83.7531 91.9922 83.7898 92.0803C83.8342 92.187 83.8487 92.2749 83.8487 92.3335C83.8487 92.4837 83.7823 92.6721 83.6536 92.8217C83.504 92.9504 83.3156 93.0168 83.1654 93.0168C83.1068 93.0168 83.0188 93.0023 82.9121 92.9579Z" fill="white" stroke="white" stroke-width="2.8"/>
<path d="M91.5003 94.4171C90.9587 94.4171 90.417 94.1879 90.0212 93.8129C89.6462 93.417 89.417 92.8962 89.417 92.3337C89.417 92.0629 89.4586 91.792 89.5836 91.542C89.6878 91.292 89.8337 91.0629 90.0212 90.8546C90.5003 90.3754 91.2295 90.1462 91.8962 90.292C92.042 90.3129 92.167 90.3545 92.292 90.417C92.417 90.4587 92.542 90.5212 92.667 90.6046C92.7712 90.6671 92.8753 90.7712 92.9795 90.8546C93.167 91.0629 93.3129 91.292 93.417 91.542C93.5212 91.792 93.5837 92.0629 93.5837 92.3337C93.5837 92.8962 93.3545 93.417 92.9795 93.8129C92.8753 93.8962 92.7712 93.9795 92.667 94.0629C92.542 94.1462 92.417 94.2088 92.292 94.2504C92.167 94.3129 92.042 94.3546 91.8962 94.3754C91.7712 94.3962 91.6253 94.4171 91.5003 94.4171Z" fill="white"/>
<path d="M99.8343 94.4171C99.2718 94.4171 98.751 94.1879 98.3552 93.8129C98.1677 93.6045 98.0218 93.3754 97.9176 93.1254C97.8134 92.8754 97.751 92.6046 97.751 92.3337C97.751 91.7921 97.9802 91.2504 98.3552 90.8546C98.4593 90.7712 98.5635 90.6879 98.6676 90.6046C98.7926 90.5212 98.9176 90.4587 99.0426 90.417C99.1676 90.3545 99.2926 90.3129 99.4176 90.292C100.105 90.1462 100.813 90.3754 101.313 90.8546C101.688 91.2504 101.918 91.7712 101.918 92.3337C101.918 92.6046 101.855 92.8754 101.751 93.1254C101.647 93.3962 101.501 93.6045 101.313 93.8129C100.918 94.1879 100.376 94.4171 99.8343 94.4171Z" fill="white"/>
<defs>
<filter id="filter0_d_8545_902" x="0.734711" y="0.718109" width="181.531" height="182.564" filterUnits="userSpaceOnUse" color-interpolation-filters="sRGB">
<feFlood flood-opacity="0" result="BackgroundImageFix"/>
<feColorMatrix in="SourceAlpha" type="matrix" values="0 0 0 0 0 0 0 0 0 0 0 0 0 0 0 0 0 0 127 0" result="hardAlpha"/>
<feMorphology radius="5.16529" operator="dilate" in="SourceAlpha" result="effect1_dropShadow_8545_902"/>
<feOffset dy="8"/>
<feGaussianBlur stdDeviation="11.55"/>
<feComposite in2="hardAlpha" operator="out"/>
<feColorMatrix type="matrix" values="0 0 0 0 0 0 0 0 0 0 0 0 0 0 0 0 0 0 1 0"/>
<feBlend mode="normal" in2="BackgroundImageFix" result="effect1_dropShadow_8545_902"/>
<feBlend mode="normal" in="SourceGraphic" in2="effect1_dropShadow_8545_902" result="shape"/>
</filter>
<linearGradient id="paint0_linear_8545_902" x1="91.5" y1="17" x2="91.5" y2="152" gradientUnits="userSpaceOnUse">
<stop stop-color="#222324"/>
<stop offset="1" stop-color="#2F2F33"/>
</linearGradient>
</defs>
</svg>
