<svg width="183" height="184" viewBox="0 0 183 184" fill="none" xmlns="http://www.w3.org/2000/svg">
<circle cx="91.5" cy="84.5" r="67.5" fill="#2F2F33"/>
<g filter="url(#filter0_d_8546_620)">
<ellipse cx="91.5" cy="83.9999" rx="62.5" ry="63.0165" fill="#0E0F11"/>
</g>
<path d="M89.9295 105.849L89.9117 105.843L89.8937 105.838C79.6689 103.021 72.276 93.4545 72.276 83.1463V74.0004C72.276 72.2366 73.6189 70.2262 75.263 69.5452C75.2637 69.5449 75.2644 69.5446 75.2651 69.5443L86.862 64.7972C86.8624 64.7971 86.8629 64.7969 86.8633 64.7967C89.5467 63.7053 92.4786 63.7068 95.1368 64.796L95.1373 64.7961L106.737 69.5443C106.738 69.5446 106.738 69.5449 106.739 69.5451C108.383 70.2261 109.726 72.2366 109.726 74.0004V83.1463C109.726 93.4314 102.314 103.001 92.1052 105.839L92.0888 105.844L92.0725 105.849C91.7459 105.948 91.386 105.996 91.001 105.996C90.616 105.996 90.2561 105.948 89.9295 105.849ZM86.9936 65.1207L86.9914 65.1215L75.3873 69.8715L75.3873 69.8715L75.3792 69.8748C74.5546 70.2184 73.8804 70.8829 73.423 71.5623C72.9661 72.241 72.601 73.1195 72.601 74.0213V83.1672C72.601 93.38 79.9144 102.743 89.9685 105.534C90.6381 105.731 91.3639 105.731 92.0334 105.534C102.088 102.743 109.401 93.38 109.401 83.1672V74.0213C109.401 73.1195 109.036 72.241 108.579 71.5623C108.122 70.8829 107.447 70.2184 106.623 69.8748L106.615 69.8715L95.0105 65.1215L95.0084 65.1207C93.7181 64.595 92.3722 64.3297 91.001 64.3297C89.6298 64.3297 88.2839 64.595 86.9936 65.1207Z" fill="white" stroke="white" stroke-width="2.8"/>
<path d="M81.0833 86.1406C80.8125 86.1406 80.5417 86.0781 80.2917 85.974C80.0417 85.8698 79.8125 85.724 79.6042 85.5365C79.4167 85.3281 79.25 85.099 79.1458 84.849C79.0417 84.599 79 84.3281 79 84.0573C79 83.5156 79.2292 82.974 79.6042 82.5781C80.375 81.8073 81.7708 81.8073 82.5625 82.5781C82.9375 82.974 83.1667 83.5156 83.1667 84.0573C83.1667 84.3281 83.1042 84.599 83 84.849C82.8958 85.099 82.75 85.3281 82.5625 85.5365C82.3542 85.724 82.125 85.8698 81.875 85.974C81.625 86.0781 81.3542 86.1406 81.0833 86.1406Z" fill="white"/>
<path d="M87.7503 86.1406C87.4795 86.1406 87.2087 86.0781 86.9587 85.974C86.7087 85.8698 86.4795 85.724 86.2712 85.5365C86.0837 85.3281 85.9378 85.099 85.8128 84.849C85.7295 84.599 85.667 84.3281 85.667 84.0573C85.667 83.5156 85.8962 82.974 86.2712 82.5781C87.042 81.8073 88.4587 81.8073 89.2295 82.5781C89.6045 82.974 89.8337 83.5156 89.8337 84.0573C89.8337 84.3281 89.7712 84.599 89.667 84.849C89.5628 85.099 89.417 85.3281 89.2295 85.5365C89.0212 85.724 88.792 85.8698 88.542 85.974C88.292 86.0781 88.0212 86.1406 87.7503 86.1406Z" fill="white"/>
<path d="M94.4163 86.1406C94.1455 86.1406 93.8747 86.0781 93.6247 85.974C93.3747 85.8698 93.1455 85.724 92.9372 85.5365C92.7497 85.3281 92.6038 85.099 92.4788 84.849C92.3955 84.599 92.333 84.3281 92.333 84.0573C92.333 83.5156 92.5622 82.974 92.9372 82.5781C93.708 81.8073 95.1247 81.8073 95.8955 82.5781C96.2705 82.974 96.4997 83.5156 96.4997 84.0573C96.4997 84.3281 96.4372 84.599 96.333 84.849C96.2288 85.099 96.083 85.3281 95.8955 85.5365C95.6872 85.724 95.458 85.8698 95.208 85.974C94.958 86.0781 94.6872 86.1406 94.4163 86.1406Z" fill="white"/>
<path d="M101.083 86.1406C100.813 86.1406 100.542 86.0781 100.292 85.974C100.042 85.8698 99.8125 85.724 99.6042 85.5365C99.4167 85.3281 99.2708 85.099 99.1458 84.849C99.0625 84.599 99 84.3281 99 84.0573C99 83.5156 99.2292 82.974 99.6042 82.5781C100.375 81.8073 101.792 81.8073 102.563 82.5781C102.938 82.974 103.167 83.5156 103.167 84.0573C103.167 84.3281 103.104 84.599 103 84.849C102.896 85.099 102.75 85.3281 102.563 85.5365C102.354 85.724 102.125 85.8698 101.875 85.974C101.625 86.0781 101.354 86.1406 101.083 86.1406Z" fill="white"/>
<defs>
<filter id="filter0_d_8546_620" x="0.734711" y="0.718109" width="181.531" height="182.564" filterUnits="userSpaceOnUse" color-interpolation-filters="sRGB">
<feFlood flood-opacity="0" result="BackgroundImageFix"/>
<feColorMatrix in="SourceAlpha" type="matrix" values="0 0 0 0 0 0 0 0 0 0 0 0 0 0 0 0 0 0 127 0" result="hardAlpha"/>
<feMorphology radius="5.16529" operator="dilate" in="SourceAlpha" result="effect1_dropShadow_8546_620"/>
<feOffset dy="8"/>
<feGaussianBlur stdDeviation="11.55"/>
<feComposite in2="hardAlpha" operator="out"/>
<feColorMatrix type="matrix" values="0 0 0 0 0 0 0 0 0 0 0 0 0 0 0 0 0 0 1 0"/>
<feBlend mode="normal" in2="BackgroundImageFix" result="effect1_dropShadow_8546_620"/>
<feBlend mode="normal" in="SourceGraphic" in2="effect1_dropShadow_8546_620" result="shape"/>
</filter>
</defs>
</svg>
