<svg width="183" height="184" viewBox="0 0 183 184" fill="none" xmlns="http://www.w3.org/2000/svg">
<circle cx="91.5" cy="84.5" r="67.5" fill="#2F2F33"/>
<g filter="url(#filter0_d_8545_3692)">
<ellipse cx="91.5" cy="83.9999" rx="62.5" ry="63.0165" fill="#0E0F11"/>
</g>
<path d="M78.1424 100.594L78.1167 100.59L78.0908 100.587C74.904 100.233 73.2979 99.1593 72.3857 97.656C71.3965 96.026 71.0445 93.6227 71.0445 90.2078V79.7912C71.0445 76.3784 71.4014 73.9706 72.3994 72.3357C73.3213 70.8255 74.9439 69.7454 78.1524 69.391L78.1702 69.3891L78.1879 69.3867C79.0165 69.2737 80.0924 69.212 81.6237 69.212H88.832C88.8652 69.212 88.9059 69.2252 88.9436 69.2629C88.9814 69.3006 88.9945 69.3413 88.9945 69.3745C88.9945 69.4077 88.9814 69.4484 88.9436 69.4861C88.9059 69.5239 88.8652 69.537 88.832 69.537H81.6237C80.1743 69.537 79.1155 69.6005 78.2302 69.7133C76.0614 69.9495 74.0989 70.4468 72.8495 72.23C71.6923 73.8818 71.3695 76.3584 71.3695 79.7912V90.2078C71.3695 93.6417 71.6927 96.11 72.8391 97.7575C74.0763 99.5355 76.018 100.037 78.1534 100.284C79.1239 100.421 80.1989 100.462 81.6237 100.462H88.957C88.9902 100.462 89.0309 100.475 89.0686 100.513C89.1064 100.551 89.1195 100.591 89.1195 100.625C89.1195 100.658 89.1064 100.698 89.0686 100.736C89.0309 100.774 88.9902 100.787 88.957 100.787H81.6237C80.0926 100.787 79.0241 100.725 78.1424 100.594Z" fill="white" stroke="white" stroke-width="2.8"/>
<path d="M103.856 69.4051L103.881 69.4089L103.907 69.4118C107.094 69.7659 108.7 70.8397 109.612 72.343C110.602 73.973 110.954 76.3763 110.954 79.7912V90.2078C110.954 93.6206 110.597 96.0284 109.599 97.6633C108.677 99.1735 107.054 100.254 103.846 100.608L103.828 100.61L103.81 100.612C102.982 100.725 101.906 100.787 100.374 100.787H97.291C97.2579 100.787 97.2171 100.774 97.1794 100.736C97.1417 100.698 97.1285 100.658 97.1285 100.625C97.1285 100.591 97.1417 100.551 97.1794 100.513C97.2171 100.475 97.2579 100.462 97.291 100.462H100.374C101.824 100.462 102.883 100.398 103.768 100.286C105.937 100.05 107.899 99.5522 109.149 97.769C110.306 96.1172 110.629 93.6406 110.629 90.2078V79.7912C110.629 76.3573 110.305 73.8891 109.159 72.2415C107.922 70.4636 105.98 69.9622 103.845 69.715C102.874 69.5778 101.799 69.537 100.374 69.537H97.291C97.2579 69.537 97.2171 69.5239 97.1794 69.4861C97.1417 69.4484 97.1285 69.4077 97.1285 69.3745C97.1285 69.3413 97.1417 69.3006 97.1794 69.2629C97.2171 69.2252 97.2579 69.212 97.291 69.212H100.374C101.905 69.212 102.974 69.2738 103.856 69.4051Z" fill="white" stroke="white" stroke-width="2.8"/>
<path d="M97.25 105.996C97.2168 105.996 97.1761 105.983 97.1384 105.945C97.1006 105.908 97.0875 105.867 97.0875 105.834V64.167C97.0875 64.1338 97.1006 64.0931 97.1384 64.0554C97.1761 64.0176 97.2168 64.0045 97.25 64.0045C97.2832 64.0045 97.3239 64.0176 97.3616 64.0554C97.3994 64.0931 97.4125 64.1338 97.4125 64.167V105.834C97.4125 105.867 97.3994 105.908 97.3616 105.945C97.3239 105.983 97.2832 105.996 97.25 105.996Z" fill="white" stroke="white" stroke-width="2.8"/>
<path d="M79.9583 87.0835C79.6875 87.0835 79.4167 87.021 79.1667 86.9168C78.9167 86.8127 78.6875 86.6668 78.4792 86.4793C78.2917 86.271 78.125 86.0418 78.0208 85.7918C77.9167 85.5418 77.875 85.271 77.875 85.0002C77.875 84.4585 78.1042 83.9168 78.4792 83.521C79.25 82.7502 80.6458 82.7502 81.4375 83.521C81.8125 83.9168 82.0417 84.4585 82.0417 85.0002C82.0417 85.271 81.9792 85.5418 81.875 85.7918C81.7708 86.0418 81.625 86.271 81.4375 86.4793C81.2292 86.6668 81 86.8127 80.75 86.9168C80.5 87.021 80.2292 87.0835 79.9583 87.0835Z" fill="white"/>
<path d="M88.2904 87.0835C88.0195 87.0835 87.7487 87.021 87.4987 86.9168C87.2487 86.8127 87.0195 86.6668 86.8112 86.4793C86.6237 86.271 86.4779 86.0418 86.3529 85.7918C86.2695 85.5418 86.207 85.271 86.207 85.0002C86.207 84.4585 86.4362 83.9168 86.8112 83.521C87.582 82.7502 88.9987 82.7502 89.7695 83.521C90.1445 83.9168 90.3737 84.4585 90.3737 85.0002C90.3737 85.271 90.3112 85.5418 90.207 85.7918C90.1029 86.0418 89.957 86.271 89.7695 86.4793C89.5612 86.6668 89.332 86.8127 89.082 86.9168C88.832 87.021 88.5612 87.0835 88.2904 87.0835Z" fill="white"/>
<defs>
<filter id="filter0_d_8545_3692" x="0.734711" y="0.718109" width="181.531" height="182.564" filterUnits="userSpaceOnUse" color-interpolation-filters="sRGB">
<feFlood flood-opacity="0" result="BackgroundImageFix"/>
<feColorMatrix in="SourceAlpha" type="matrix" values="0 0 0 0 0 0 0 0 0 0 0 0 0 0 0 0 0 0 127 0" result="hardAlpha"/>
<feMorphology radius="5.16529" operator="dilate" in="SourceAlpha" result="effect1_dropShadow_8545_3692"/>
<feOffset dy="8"/>
<feGaussianBlur stdDeviation="11.55"/>
<feComposite in2="hardAlpha" operator="out"/>
<feColorMatrix type="matrix" values="0 0 0 0 0 0 0 0 0 0 0 0 0 0 0 0 0 0 1 0"/>
<feBlend mode="normal" in2="BackgroundImageFix" result="effect1_dropShadow_8545_3692"/>
<feBlend mode="normal" in="SourceGraphic" in2="effect1_dropShadow_8545_3692" result="shape"/>
</filter>
</defs>
</svg>
