<svg width="55" height="54" viewBox="0 0 55 54" fill="none" xmlns="http://www.w3.org/2000/svg">
<path d="M18.325 15.188C18.325 10.128 22.4405 6.01249 27.5005 6.01249C32.5595 6.01249 36.6744 10.1264 36.676 15.185C36.6551 20.1498 32.7864 24.1543 27.8554 24.341H27.8553H27.8553H27.8552H27.8551H27.855H27.855H27.8549H27.8548H27.8548H27.8547H27.8546H27.8545H27.8545H27.8544H27.8543H27.8542H27.8542H27.8541H27.854H27.8539H27.8539H27.8538H27.8537H27.8536H27.8536H27.8535H27.8534H27.8533H27.8533H27.8532H27.8531H27.853H27.8529H27.8529H27.8528H27.8527H27.8526H27.8526H27.8525H27.8524H27.8523H27.8522H27.8522H27.8521H27.852H27.8519H27.8518H27.8518H27.8517H27.8516H27.8515H27.8514H27.8513H27.8513H27.8512H27.8511H27.851H27.8509H27.8508H27.8508H27.8507H27.8506H27.8505H27.8504H27.8503H27.8503H27.8502H27.8501H27.85H27.8499H27.8498H27.8497H27.8496H27.8496H27.8495H27.8494H27.8493H27.8492H27.8491H27.849H27.8489H27.8488H27.8488H27.8487H27.8486H27.8485H27.8484H27.8483H27.8482H27.8481H27.848H27.8479H27.8478H27.8477H27.8476H27.8475H27.8474H27.8473H27.8473H27.8472H27.8471H27.847H27.8469H27.8468H27.8467H27.8466H27.8465H27.8464H27.8463H27.8462H27.8461H27.846H27.8459H27.8458H27.8457H27.8456H27.8455H27.8454H27.8453H27.8451H27.845H27.8449H27.8448H27.8447H27.8446H27.8445H27.8444H27.8443H27.8442H27.8441H27.844H27.8439H27.8438H27.8436H27.8435H27.8434H27.8433H27.8432H27.8431H27.843H27.8429H27.8428H27.8426H27.8425H27.8424H27.8423H27.8422H27.8421H27.842H27.8418H27.8417H27.8416H27.8415H27.8414H27.8412H27.8411H27.841H27.8409H27.8408H27.8406H27.8405H27.8404H27.8403H27.8402H27.84H27.8399H27.8398H27.8397H27.8395H27.8394H27.8393H27.8392H27.839H27.8389H27.8388H27.8386H27.8385H27.8384H27.8383H27.8381H27.838H27.8377H27.8375H27.8372H27.8369H27.8367H27.8364H27.8362H27.8359H27.8356H27.8354H27.8351H27.8349H27.8346H27.8343H27.8341H27.8338H27.8336H27.8333H27.8331H27.8328H27.8326H27.8323H27.8321H27.8318H27.8316H27.8313H27.831H27.8308H27.8305H27.8303H27.8301H27.8298H27.8296H27.8293H27.8291H27.8288H27.8286H27.8283H27.8281H27.8278H27.8276H27.8273H27.8271H27.8269H27.8266H27.8264H27.8261H27.8259H27.8256H27.8254H27.8252H27.8249H27.8247H27.8244H27.8242H27.824H27.8237H27.8235H27.8233H27.823H27.8228C27.6044 24.3176 27.3837 24.3204 27.182 24.3379C22.1404 24.114 18.325 20.1124 18.325 15.188Z" fill="#7A7C7E" stroke="#7A7C7E" stroke-width="3.024"/>
<path d="M16.913 45.0722L16.9089 45.0694C14.3794 43.3831 13.1722 41.2427 13.1722 39.105C13.1722 36.9661 14.3806 34.8039 16.9305 33.0961C19.7941 31.2018 23.6262 30.2107 27.5283 30.2107C31.4323 30.2107 35.2523 31.2028 38.0914 33.0955C40.6099 34.7745 41.8084 36.914 41.8282 39.0662C41.8259 41.2256 40.617 43.3651 38.0862 45.0729C35.2361 46.9862 31.4067 47.988 27.5002 47.988C23.5932 47.988 19.7633 46.986 16.913 45.0722Z" fill="#7A7C7E" stroke="#7A7C7E" stroke-width="3.024"/>
</svg>
