<svg width="24" height="16" viewBox="0 0 24 16" fill="none" xmlns="http://www.w3.org/2000/svg">
<rect x="0.833171" y="0.166667" width="23" height="15.6667" rx="1.16667" fill="#1F72CD" stroke="#D9D9D9" stroke-width="0.333333"/>
<path fill-rule="evenodd" clip-rule="evenodd" d="M5.12074 5.66699L3 10.4982H5.53882L5.85356 9.72787H6.57299L6.88773 10.4982H9.68226V9.91025L9.93127 10.4982H11.3768L11.6258 9.89782V10.4982H17.4377L18.1444 9.74787L18.8061 10.4982L21.7912 10.5044L19.6638 8.09606L21.7912 5.66699H18.8524L18.1645 6.40341L17.5236 5.66699H11.2011L10.6581 6.91396L10.1025 5.66699H7.56896V6.2349L7.28712 5.66699H5.12074ZM13.7996 6.35307H17.137L18.1578 7.48812L19.2115 6.35307H20.2322L18.6813 8.09542L20.2322 9.8177H19.1652L18.1444 8.66947L17.0854 9.8177H13.7996V6.35307ZM14.6238 7.70372V7.07088V7.07027H16.7062L17.6149 8.08235L16.666 9.09995H14.6238V8.40907H16.4445V7.70372H14.6238ZM5.61203 6.35307H6.84957L8.25626 9.62911V6.35307H9.61193L10.6984 8.70197L11.6998 6.35307H13.0487V9.81975H12.2279L12.2212 7.10328L11.0246 9.81975H10.2904L9.08705 7.10328V9.81975H7.39852L7.07841 9.04256H5.34896L5.02951 9.81906H4.12482L5.61203 6.35307ZM5.64423 8.32406L6.21401 6.93958L6.78314 8.32406H5.64423Z" fill="white"/>
</svg>
