<svg width="45" height="44" viewBox="0 0 45 44" fill="none" xmlns="http://www.w3.org/2000/svg">
<path d="M13.1643 39.7224H32.0865C37.0699 39.7224 39.056 36.6711 39.2907 32.9516L40.2296 18.0377C40.4824 14.1377 37.3768 10.8336 33.4587 10.8336C32.3574 10.8336 31.3462 10.2016 30.8407 9.22661L29.5407 6.60855C28.7101 4.96549 26.5435 3.61133 24.7018 3.61133H20.5671C18.7074 3.61133 16.5407 4.96549 15.7101 6.60855L14.4101 9.22661C13.9046 10.2016 12.8935 10.8336 11.7921 10.8336C7.87402 10.8336 4.76847 14.1377 5.02124 18.0377L5.96013 32.9516C6.1768 36.6711 8.18097 39.7224 13.1643 39.7224Z" stroke="white" stroke-width="2.6" stroke-linecap="round" stroke-linejoin="round"/>
<path d="M19.917 14.4448H25.3337" stroke="white" stroke-width="2.6" stroke-linecap="round" stroke-linejoin="round"/>
<path d="M22.6254 32.4998C25.8573 32.4998 28.4934 29.8637 28.4934 26.6317C28.4934 23.3998 25.8573 20.7637 22.6254 20.7637C19.3934 20.7637 16.7573 23.3998 16.7573 26.6317C16.7573 29.8637 19.3934 32.4998 22.6254 32.4998Z" stroke="white" stroke-width="2.6" stroke-linecap="round" stroke-linejoin="round"/>
</svg>
