<svg width="20" height="20" viewBox="0 0 20 20" fill="none" xmlns="http://www.w3.org/2000/svg">
<path d="M11.0523 10.0002L13.7717 7.28084L13.7718 7.28103L13.7765 7.27564C13.8853 7.14851 13.9422 6.98497 13.9358 6.81771C13.9293 6.65045 13.86 6.49179 13.7416 6.37343C13.6233 6.25507 13.4646 6.18573 13.2973 6.17927C13.1301 6.17281 12.9665 6.2297 12.8394 6.33858L12.8392 6.3384L12.8345 6.34305L10.115 9.03463L7.3779 6.29755L7.3781 6.29736L7.37271 6.29275C7.24557 6.18387 7.08204 6.12698 6.91478 6.13344C6.74752 6.1399 6.58885 6.20924 6.4705 6.32759C6.35214 6.44595 6.2828 6.60462 6.27634 6.77188C6.26988 6.93914 6.32677 7.10267 6.43565 7.22981L6.43547 7.22996L6.44006 7.2346L9.17146 9.99959L6.50038 12.6371C6.43198 12.6963 6.37638 12.7688 6.33698 12.8503C6.29709 12.9327 6.27467 13.0225 6.27113 13.1141C6.2676 13.2056 6.28302 13.2969 6.31643 13.3821C6.34984 13.4674 6.40052 13.5449 6.46529 13.6096C6.53006 13.6744 6.60751 13.7251 6.69279 13.7585L6.72623 13.6732L6.6928 13.7585C6.77808 13.7919 6.86935 13.8073 6.96087 13.8038C7.0524 13.8003 7.1422 13.7778 7.22466 13.738C7.30601 13.6986 7.37846 13.6431 7.43761 13.5748L10.1032 10.9092L12.754 13.56L12.7538 13.5602L12.7592 13.5648C12.8863 13.6737 13.0499 13.7306 13.2171 13.7241C13.3844 13.7177 13.543 13.6483 13.6614 13.53C13.7798 13.4116 13.8491 13.2529 13.8556 13.0857C13.862 12.9184 13.8051 12.7549 13.6962 12.6277L13.6965 12.6276L13.6912 12.6223L11.0523 10.0002Z" fill="#7A7C7E" stroke="#7A7C7E" stroke-width="0.183333"/>
<path d="M4.857 17.6987C6.37952 18.716 8.16953 19.259 10.0007 19.259C12.4561 19.259 14.811 18.2836 16.5473 16.5473C18.2836 14.811 19.259 12.4561 19.259 10.0007C19.259 8.16953 18.716 6.37952 17.6987 4.857C16.6814 3.33448 15.2354 2.14781 13.5437 1.44707C11.8519 0.746329 9.99038 0.562983 8.19444 0.920218C6.3985 1.27745 4.74883 2.15922 3.45402 3.45402C2.15922 4.74883 1.27745 6.3985 0.920218 8.19444C0.562983 9.99038 0.746329 11.8519 1.44707 13.5437C2.14781 15.2354 3.33448 16.6814 4.857 17.6987ZM5.59545 3.40779C6.89939 2.53653 8.43241 2.07149 10.0007 2.07149C12.1036 2.07149 14.1204 2.90688 15.6074 4.39389C17.0944 5.88089 17.9298 7.89771 17.9298 10.0007C17.9298 11.5689 17.4648 13.1019 16.5935 14.4059C15.7222 15.7098 14.4839 16.7261 13.035 17.3262C11.5861 17.9264 9.99186 18.0834 8.45375 17.7775C6.91564 17.4715 5.5028 16.7163 4.39389 15.6074C3.28497 14.4985 2.52979 13.0857 2.22385 11.5476C1.9179 10.0094 2.07492 8.41516 2.67506 6.96629C3.2752 5.51743 4.2915 4.27906 5.59545 3.40779Z" fill="#7A7C7E" stroke="#7A7C7E" stroke-width="0.183333"/>
</svg>
