<svg width="30" height="22" viewBox="0 0 30 22" fill="none" xmlns="http://www.w3.org/2000/svg">
<rect x="2" y="6" width="22" height="15" rx="1" fill="#F2F2F2"/>
<path d="M2 7C2 6.44772 2.44772 6 3 6H23C23.5523 6 24 6.44772 24 7V10H2V7Z" fill="#E0E0E0"/>
<rect x="4" y="13" width="18" height="2" rx="1" fill="#FCFCFC"/>
<g clip-path="url(#clip0_9176_1537)">
<path d="M21 15C24.3137 15 27 12.3137 27 9C27 5.68629 24.3137 3 21 3C17.6863 3 15 5.68629 15 9C15 12.3137 17.6863 15 21 15Z" fill="#4F4F4F"/>
<path d="M18.1045 6.64941V10.9268H17.3281V7.55469L16.2998 7.89453V7.26758L18.0166 6.64941H18.1045Z" fill="#FCFCFC"/>
<path d="M22.4287 10.3174V10.9268H19.54V10.4053L20.9258 8.9082C21.0703 8.74414 21.1846 8.60156 21.2686 8.48047C21.3525 8.35938 21.4121 8.25 21.4473 8.15234C21.4844 8.05273 21.5029 7.95801 21.5029 7.86816C21.5029 7.7373 21.4795 7.62305 21.4326 7.52539C21.3857 7.42578 21.3174 7.34863 21.2275 7.29395C21.1396 7.23926 21.0312 7.21191 20.9023 7.21191C20.7598 7.21191 20.6377 7.24512 20.5361 7.31152C20.4365 7.37598 20.3604 7.46582 20.3076 7.58105C20.2568 7.69629 20.2314 7.82812 20.2314 7.97656H19.4551C19.4551 7.72461 19.5137 7.49512 19.6309 7.28809C19.748 7.0791 19.916 6.91211 20.1348 6.78711C20.3535 6.66211 20.6133 6.59961 20.9141 6.59961C21.207 6.59961 21.4551 6.64844 21.6582 6.74609C21.8613 6.8418 22.0156 6.97852 22.1211 7.15625C22.2266 7.33398 22.2793 7.5459 22.2793 7.79199C22.2793 7.92871 22.2568 8.06348 22.2119 8.19629C22.167 8.3291 22.1035 8.46094 22.0215 8.5918C21.9414 8.7207 21.8457 8.85156 21.7344 8.98438C21.623 9.11719 21.499 9.25293 21.3623 9.3916L20.5303 10.3174H22.4287Z" fill="#FCFCFC"/>
<path d="M23.8145 8.45117H24.251C24.4053 8.45117 24.5322 8.4248 24.6318 8.37207C24.7334 8.31738 24.8086 8.24316 24.8574 8.14941C24.9082 8.05371 24.9336 7.94336 24.9336 7.81836C24.9336 7.69531 24.9111 7.58887 24.8662 7.49902C24.8213 7.40723 24.7529 7.33691 24.6611 7.28809C24.5713 7.2373 24.4561 7.21191 24.3154 7.21191C24.2021 7.21191 24.0977 7.23438 24.002 7.2793C23.9082 7.32422 23.833 7.38867 23.7764 7.47266C23.7217 7.55469 23.6943 7.65332 23.6943 7.76855H22.918C22.918 7.53809 22.9785 7.33594 23.0996 7.16211C23.2227 6.98633 23.3887 6.84863 23.5977 6.74902C23.8066 6.64941 24.04 6.59961 24.2979 6.59961C24.5791 6.59961 24.8252 6.64648 25.0361 6.74023C25.249 6.83203 25.4141 6.96777 25.5312 7.14746C25.6504 7.32715 25.71 7.5498 25.71 7.81543C25.71 7.94238 25.6797 8.06934 25.6191 8.19629C25.5605 8.32129 25.4736 8.43457 25.3584 8.53613C25.2451 8.63574 25.1055 8.7168 24.9395 8.7793C24.7754 8.83984 24.5869 8.87012 24.374 8.87012H23.8145V8.45117ZM23.8145 9.04883V8.63574H24.374C24.6143 8.63574 24.8223 8.66406 24.998 8.7207C25.1758 8.77539 25.3223 8.85352 25.4375 8.95508C25.5527 9.05469 25.6377 9.1709 25.6924 9.30371C25.749 9.43652 25.7773 9.5791 25.7773 9.73145C25.7773 9.93066 25.7402 10.1084 25.666 10.2646C25.5918 10.4189 25.4873 10.5498 25.3525 10.6572C25.2197 10.7646 25.0635 10.8467 24.8838 10.9033C24.7041 10.958 24.5098 10.9854 24.3008 10.9854C24.1191 10.9854 23.9424 10.9609 23.7705 10.9121C23.6006 10.8613 23.4473 10.7861 23.3105 10.6865C23.1738 10.585 23.0654 10.458 22.9854 10.3057C22.9053 10.1514 22.8652 9.97266 22.8652 9.76953H23.6416C23.6416 9.88672 23.6699 9.99121 23.7266 10.083C23.7852 10.1748 23.8652 10.2471 23.9668 10.2998C24.0703 10.3506 24.1865 10.376 24.3154 10.376C24.458 10.376 24.5801 10.3506 24.6816 10.2998C24.7852 10.2471 24.8643 10.1729 24.9189 10.0771C24.9736 9.97949 25.001 9.86328 25.001 9.72852C25.001 9.56836 24.9707 9.43848 24.9102 9.33887C24.8496 9.23926 24.7627 9.16602 24.6494 9.11914C24.5381 9.07227 24.4053 9.04883 24.251 9.04883H23.8145Z" fill="#FCFCFC"/>
</g>
<defs>
<clipPath id="clip0_9176_1537">
<rect width="12" height="12" fill="white" transform="translate(15 3)"/>
</clipPath>
</defs>
</svg>
