<svg width="24" height="24" viewBox="0 0 24 24" fill="none" xmlns="http://www.w3.org/2000/svg">
<path d="M20.5213 3.14396C18.4938 1.11641 15.7979 -0.000113402 12.9307 8.63884e-09C12.7051 8.63884e-09 12.4887 0.0896141 12.3292 0.249128C12.1697 0.408642 12.0801 0.62499 12.0801 0.850577C12.0801 1.07616 12.1697 1.29251 12.3292 1.45203C12.4887 1.61154 12.7051 1.70115 12.9307 1.70115C15.3436 1.70104 17.6121 2.64065 19.3184 4.3469C21.0247 6.05316 21.9644 8.32182 21.9642 10.7349C21.9642 10.9604 22.0538 11.1768 22.2133 11.3363C22.3728 11.4958 22.5892 11.5855 22.8148 11.5855C23.0403 11.5855 23.2567 11.4959 23.4162 11.3364C23.5758 11.1769 23.6654 10.9606 23.6654 10.735C23.6655 7.86739 22.549 5.17151 20.5213 3.14396Z" fill="white"/>
<path d="M17.022 10.7348C17.022 11.2045 17.4028 11.5854 17.8727 11.5853C18.0982 11.5852 18.3145 11.4956 18.474 11.3361C18.6335 11.1766 18.7231 10.9603 18.7231 10.7347C18.7229 7.54105 16.1242 4.94248 12.9304 4.94203C12.8187 4.94202 12.7079 4.96402 12.6047 5.00676C12.5015 5.04949 12.4078 5.11214 12.3288 5.19112C12.1692 5.35062 12.0796 5.56696 12.0796 5.79255C12.0796 5.90425 12.1016 6.01486 12.1443 6.11806C12.1871 6.22126 12.2497 6.31503 12.3287 6.39402C12.4077 6.47301 12.5014 6.53566 12.6046 6.57842C12.7078 6.62117 12.8184 6.64318 12.9301 6.64318C15.1862 6.64352 17.0217 8.47896 17.022 10.7348ZM15.1398 15.0716C13.8433 15.0045 13.1828 15.9687 12.866 16.4319C12.803 16.524 12.7587 16.6278 12.7357 16.7371C12.7127 16.8464 12.7115 16.9592 12.7321 17.0689C12.7527 17.1787 12.7947 17.2834 12.8558 17.3769C12.9168 17.4705 12.9957 17.5511 13.0879 17.6142C13.1801 17.6772 13.2838 17.7215 13.3931 17.7445C13.5024 17.7675 13.6152 17.7687 13.725 17.7481C13.8348 17.7275 13.9394 17.6855 14.033 17.6244C14.1265 17.5634 14.2071 17.4845 14.2702 17.3923C14.6444 16.8451 14.814 16.759 15.044 16.7699C15.7801 16.8565 18.6795 18.9811 18.9698 19.6454C19.0426 19.8411 19.0399 20.0329 18.9617 20.2661C18.6573 21.1696 18.1535 21.8044 17.5043 22.102C16.8876 22.3848 16.1315 22.3591 15.3182 22.0282C12.2814 20.7904 9.6283 19.0631 7.43267 16.894L7.43007 16.8914C5.26552 14.6979 3.54134 12.0482 2.30562 9.01607C1.97458 8.20212 1.94895 7.4459 2.23168 6.82929C2.52927 6.18013 3.16414 5.67625 4.06677 5.3722C4.30085 5.29372 4.49229 5.29122 4.6861 5.36335C5.35284 5.6547 7.47736 8.55392 7.5631 9.28179C7.57534 9.5204 7.48859 9.68984 6.94183 10.0634C6.84836 10.1259 6.7682 10.2063 6.70599 10.2999C6.64378 10.3936 6.60075 10.4986 6.57939 10.609C6.55803 10.7194 6.55877 10.8329 6.58155 10.943C6.60434 11.0531 6.64873 11.1576 6.71215 11.2504C6.77557 11.3432 6.85676 11.4226 6.95103 11.4838C7.04531 11.5451 7.15079 11.587 7.26138 11.6073C7.37197 11.6275 7.48548 11.6256 7.59533 11.6017C7.70519 11.5778 7.80922 11.5324 7.9014 11.468C8.36479 11.1516 9.32878 10.4929 9.26187 9.19197C9.18815 7.83309 6.54479 4.23446 5.28173 3.77005C4.72001 3.56069 4.12915 3.55706 3.5249 3.75984C2.16533 4.21768 1.18343 5.03401 0.685329 6.12048C0.202202 7.17451 0.217512 8.39741 0.730126 9.65763C2.0526 12.9025 3.90289 15.7418 6.2295 18.0967C6.23518 18.1025 6.24096 18.1082 6.24686 18.1137C8.60012 20.436 11.4361 22.2829 14.6766 23.6038C15.3256 23.8677 15.9646 23.9998 16.5758 23.9998C17.1513 23.9998 17.7022 23.8828 18.2132 23.6485C19.2998 23.1505 20.116 22.1687 20.5742 20.8082C20.7765 20.2051 20.7732 19.6145 20.5655 19.0554C20.0995 17.7889 16.5008 15.1456 15.1398 15.0716Z" fill="white"/>
</svg>
