<svg width="24" height="16" viewBox="0 0 24 16" fill="none" xmlns="http://www.w3.org/2000/svg">
<rect x="0.166667" y="0.166667" width="23" height="15.6667" rx="1.16667" fill="white" stroke="#D9D9D9" stroke-width="0.333333"/>
<path d="M10 15.3333L22.6667 11.5V14.6667C22.6667 15.0349 22.3682 15.3333 22 15.3333H10Z" fill="#FD6020"/>
<path fill-rule="evenodd" clip-rule="evenodd" d="M20.2623 6.07389C20.9591 6.07389 21.3424 6.39625 21.3424 7.00516C21.3773 7.47079 21.0637 7.86479 20.6455 7.93643L21.5863 9.26169H20.8546L20.0532 7.97225H19.9835V9.26169H19.3912V6.07389H20.2623ZM19.9835 7.54248H20.1577C20.541 7.54248 20.7152 7.36339 20.7152 7.04103C20.7152 6.75449 20.541 6.5754 20.1577 6.5754H19.9835V7.54248ZM17.3354 9.26169H19.0079V8.72442H17.9278V7.86479H18.9731V7.32752H17.9278V6.61116H19.0079V6.07389H17.3354V9.26169ZM15.5933 8.22297L14.7919 6.07389H14.1648L15.454 9.33333H15.7675L17.0567 6.07389H16.4296L15.5933 8.22297ZM8.52014 7.68571C8.52014 8.58116 9.217 9.33333 10.0881 9.33333C10.3668 9.33333 10.6107 9.2617 10.8546 9.15424V8.43789C10.6804 8.65279 10.4365 8.79606 10.1578 8.79606C9.60028 8.79606 9.14732 8.36625 9.14732 7.79316V7.72153C9.11248 7.14844 9.56544 6.64699 10.1229 6.61117C10.4017 6.61117 10.6804 6.75444 10.8546 6.96935V6.25299C10.6456 6.10972 10.3668 6.0739 10.1229 6.0739C9.217 6.00226 8.52014 6.75444 8.52014 7.68571ZM7.44 7.29171C7.09157 7.14844 6.98704 7.0768 6.98704 6.89771C7.02188 6.6828 7.1961 6.50371 7.40515 6.53953C7.57937 6.53953 7.75359 6.64699 7.89296 6.79026L8.20655 6.36044C7.96265 6.14553 7.64906 6.00226 7.33547 6.00226C6.84766 5.96644 6.42955 6.36044 6.3947 6.86189V6.89771C6.3947 7.32753 6.56892 7.57825 7.12641 7.75734C7.26578 7.79316 7.40515 7.8648 7.54453 7.93643C7.64906 8.00807 7.71874 8.11552 7.71874 8.25879C7.71874 8.50952 7.50968 8.72443 7.30063 8.72443H7.26578C6.98704 8.72443 6.74313 8.54534 6.63861 8.29461L6.25533 8.68861C6.46439 9.08261 6.88251 9.29752 7.30063 9.29752C7.85812 9.33333 8.31108 8.90352 8.34592 8.33043V8.22298C8.31108 7.79316 8.13686 7.57825 7.44 7.29171ZM5.41911 9.26169H6.01144V6.07389H5.41911V9.26169ZM2.6665 6.07389H3.53758H3.7118C4.54803 6.10971 5.21005 6.82607 5.17521 7.6857C5.17521 8.15134 4.96615 8.58115 4.61772 8.90351C4.30413 9.15424 3.92086 9.29751 3.53758 9.26169H2.6665V6.07389ZM3.43303 8.72449C3.71177 8.76031 4.02536 8.65286 4.23442 8.47377C4.44348 8.25886 4.54801 7.97232 4.54801 7.64995C4.54801 7.36341 4.44348 7.07687 4.23442 6.86196C4.02536 6.68287 3.71177 6.57542 3.43303 6.61123H3.25881V8.72449H3.43303Z" fill="black"/>
<path fill-rule="evenodd" clip-rule="evenodd" d="M12.6316 6C11.7605 6 11.0288 6.71636 11.0288 7.64763C11.0288 8.54308 11.7257 9.29525 12.6316 9.33107C13.5375 9.36689 14.2344 8.61471 14.2692 7.68344C14.2344 6.75218 13.5375 6 12.6316 6V6Z" fill="#FD6020"/>
</svg>
