<svg width="45" height="44" viewBox="0 0 45 44" fill="none" xmlns="http://www.w3.org/2000/svg">
<path d="M17.2087 40.135H28.042C37.0698 40.135 40.6809 36.5239 40.6809 27.4961V16.6628C40.6809 7.63504 37.0698 4.02393 28.042 4.02393H17.2087C8.18093 4.02393 4.56982 7.63504 4.56982 16.6628V27.4961C4.56982 36.5239 8.18093 40.135 17.2087 40.135Z" stroke="white" stroke-width="2.6" stroke-linecap="round" stroke-linejoin="round"/>
<path d="M17.2083 18.4683C19.2026 18.4683 20.8194 16.8516 20.8194 14.8572C20.8194 12.8628 19.2026 11.2461 17.2083 11.2461C15.2139 11.2461 13.5972 12.8628 13.5972 14.8572C13.5972 16.8516 15.2139 18.4683 17.2083 18.4683Z" stroke="white" stroke-width="2.6" stroke-linecap="round" stroke-linejoin="round"/>
<path d="M5.7793 34.6283L14.6807 28.6519C16.1071 27.695 18.1654 27.8033 19.4474 28.9047L20.0432 29.4283C21.4515 30.638 23.7265 30.638 25.1349 29.4283L32.646 22.9825C34.0543 21.7728 36.3293 21.7728 37.7376 22.9825L40.6807 25.5103" stroke="white" stroke-width="2.6" stroke-linecap="round" stroke-linejoin="round"/>
</svg>
