<svg width="19" height="20" viewBox="0 0 19 20" fill="none" xmlns="http://www.w3.org/2000/svg">
<path d="M14.25 8.41634V6.83301C14.25 4.21259 13.4583 2.08301 9.5 2.08301C5.54167 2.08301 4.75 4.21259 4.75 6.83301V8.41634" stroke="#30DD8A" stroke-width="1.5" stroke-linecap="round" stroke-linejoin="round"/>
<path d="M9.49984 15.1458C8.40677 15.1458 7.52067 14.2597 7.52067 13.1667C7.52067 12.0736 8.40677 11.1875 9.49984 11.1875C10.5929 11.1875 11.479 12.0736 11.479 13.1667C11.479 14.2597 10.5929 15.1458 9.49984 15.1458Z" stroke="#30DD8A" stroke-width="1.5" stroke-linecap="round" stroke-linejoin="round"/>
<path d="M5.5415 17.917H13.4582C16.6248 17.917 17.4165 17.1253 17.4165 13.9587V12.3753C17.4165 9.20866 16.6248 8.41699 13.4582 8.41699H5.5415C2.37484 8.41699 1.58317 9.20866 1.58317 12.3753V13.9587C1.58317 17.1253 2.37484 17.917 5.5415 17.917Z" stroke="#30DD8A" stroke-width="1.5" stroke-linecap="round" stroke-linejoin="round"/>
</svg>
