<svg width="24" height="16" viewBox="0 0 24 16" fill="none" xmlns="http://www.w3.org/2000/svg">
<rect x="0.500163" y="0.166667" width="23" height="15.6667" rx="1.16667" fill="white" stroke="#D9D9D9" stroke-width="0.333333"/>
<path fill-rule="evenodd" clip-rule="evenodd" d="M15.1178 12.537C17.6303 12.537 19.667 10.4766 19.667 7.935C19.667 5.39339 17.6303 3.33301 15.1178 3.33301C13.9918 3.33301 12.9614 3.74686 12.167 4.4324C11.3726 3.74688 10.3422 3.33305 9.21617 3.33305C6.70373 3.33305 4.66699 5.39343 4.66699 7.93504C4.66699 10.4766 6.70373 12.537 9.21617 12.537C10.3422 12.537 11.3726 12.1232 12.167 11.4376C12.9614 12.1232 13.9919 12.537 15.1178 12.537Z" fill="#ED0006"/>
<path fill-rule="evenodd" clip-rule="evenodd" d="M12.167 11.4376C13.1451 10.5935 13.7653 9.33754 13.7653 7.935C13.7653 6.53246 13.1451 5.27646 12.167 4.43237C12.9614 3.74684 13.9918 3.33301 15.1178 3.33301C17.6303 3.33301 19.667 5.39339 19.667 7.935C19.667 10.4766 17.6303 12.537 15.1178 12.537C13.9918 12.537 12.9614 12.1232 12.167 11.4376Z" fill="#F9A000"/>
<path fill-rule="evenodd" clip-rule="evenodd" d="M12.1672 11.4378C13.1453 10.5938 13.7655 9.33776 13.7655 7.93523C13.7655 6.5327 13.1453 5.27671 12.1672 4.43262C11.1891 5.27671 10.5688 6.5327 10.5688 7.93523C10.5688 9.33776 11.1891 10.5938 12.1672 11.4378Z" fill="#FF5E00"/>
</svg>
