<svg width="50" height="50" viewBox="0 0 50 50" fill="none" xmlns="http://www.w3.org/2000/svg">
<path d="M12.1424 40.594L12.1167 40.5901L12.0908 40.5872C8.90397 40.2332 7.29787 39.1593 6.38568 37.656C5.39654 36.026 5.04453 33.6227 5.04453 30.2078V19.7912C5.04453 16.3784 5.40137 13.9706 6.39937 12.3357C7.3213 10.8255 8.94393 9.74542 12.1524 9.39105L12.1702 9.38909L12.1879 9.38667C13.0165 9.27368 14.0924 9.21201 15.6237 9.21201H22.832C22.8652 9.21201 22.9059 9.22516 22.9436 9.2629C22.9814 9.30064 22.9945 9.34135 22.9945 9.37451C22.9945 9.40767 22.9814 9.44838 22.9436 9.48612C22.9059 9.52387 22.8652 9.53701 22.832 9.53701H15.6237C14.1743 9.53701 13.1155 9.60054 12.2302 9.7133C10.0614 9.9495 8.09886 10.4468 6.84951 12.23C5.69226 13.8818 5.36953 16.3584 5.36953 19.7912V30.2078C5.36953 33.6417 5.69272 36.11 6.83911 37.7575C8.07631 39.5355 10.018 40.0368 12.1534 40.284C13.1239 40.4212 14.1989 40.462 15.6237 40.462H22.957C22.9902 40.462 23.0309 40.4752 23.0686 40.5129C23.1064 40.5506 23.1195 40.5914 23.1195 40.6245C23.1195 40.6577 23.1064 40.6984 23.0686 40.7361C23.0309 40.7739 22.9902 40.787 22.957 40.787H15.6237C14.0926 40.787 13.0241 40.7253 12.1424 40.594Z" fill="white" stroke="white" stroke-width="2.8"/>
<path d="M37.8556 9.40507L37.8814 9.40891L37.9072 9.41178C41.0941 9.76587 42.7002 10.8397 43.6124 12.343C44.6015 13.973 44.9535 16.3763 44.9535 19.7912V30.2078C44.9535 33.6206 44.5967 36.0284 43.5987 37.6633C42.6767 39.1735 41.0541 40.2536 37.8457 40.608L37.8279 40.6099L37.8102 40.6124C36.9815 40.7253 35.9057 40.787 34.3743 40.787H31.291C31.2579 40.787 31.2171 40.7739 31.1794 40.7361C31.1417 40.6984 31.1285 40.6577 31.1285 40.6245C31.1285 40.5914 31.1417 40.5506 31.1794 40.5129C31.2171 40.4752 31.2579 40.462 31.291 40.462H34.3743C35.8237 40.462 36.8826 40.3985 37.7679 40.2857C39.9366 40.0495 41.8992 39.5522 43.1485 37.769C44.3058 36.1172 44.6285 33.6406 44.6285 30.2078V19.7912C44.6285 16.3573 44.3053 13.8891 43.1589 12.2415C41.9217 10.4636 39.9801 9.96219 37.8447 9.71501C36.8742 9.57784 35.7992 9.53701 34.3743 9.53701H31.291C31.2579 9.53701 31.2171 9.52387 31.1794 9.48613C31.1417 9.44838 31.1285 9.40767 31.1285 9.37451C31.1285 9.34135 31.1417 9.30064 31.1794 9.2629C31.2171 9.22516 31.2579 9.21201 31.291 9.21201H34.3743C35.9055 9.21201 36.9739 9.27376 37.8556 9.40507Z" fill="white" stroke="white" stroke-width="2.8"/>
<path d="M31.25 45.9962C31.2168 45.9962 31.1761 45.983 31.1384 45.9453C31.1006 45.9075 31.0875 45.8668 31.0875 45.8337V4.16699C31.0875 4.13383 31.1006 4.09312 31.1384 4.05538C31.1761 4.01764 31.2168 4.00449 31.25 4.00449C31.2832 4.00449 31.3239 4.01764 31.3616 4.05538C31.3994 4.09312 31.4125 4.13383 31.4125 4.16699V45.8337C31.4125 45.8668 31.3994 45.9075 31.3616 45.9453C31.3239 45.983 31.2832 45.9962 31.25 45.9962Z" fill="white" stroke="white" stroke-width="2.8"/>
<path d="M13.9583 27.0835C13.6875 27.0835 13.4167 27.021 13.1667 26.9168C12.9167 26.8127 12.6875 26.6668 12.4792 26.4793C12.2917 26.271 12.125 26.0418 12.0208 25.7918C11.9167 25.5418 11.875 25.271 11.875 25.0002C11.875 24.4585 12.1042 23.9168 12.4792 23.521C13.25 22.7502 14.6458 22.7502 15.4375 23.521C15.8125 23.9168 16.0417 24.4585 16.0417 25.0002C16.0417 25.271 15.9792 25.5418 15.875 25.7918C15.7708 26.0418 15.625 26.271 15.4375 26.4793C15.2292 26.6668 15 26.8127 14.75 26.9168C14.5 27.021 14.2292 27.0835 13.9583 27.0835Z" fill="white"/>
<path d="M22.2904 27.0835C22.0195 27.0835 21.7487 27.021 21.4987 26.9168C21.2487 26.8127 21.0195 26.6668 20.8112 26.4793C20.6237 26.271 20.4779 26.0418 20.3529 25.7918C20.2695 25.5418 20.207 25.271 20.207 25.0002C20.207 24.4585 20.4362 23.9168 20.8112 23.521C21.582 22.7502 22.9987 22.7502 23.7695 23.521C24.1445 23.9168 24.3737 24.4585 24.3737 25.0002C24.3737 25.271 24.3112 25.5418 24.207 25.7918C24.1029 26.0418 23.957 26.271 23.7695 26.4793C23.5612 26.6668 23.332 26.8127 23.082 26.9168C22.832 27.021 22.5612 27.0835 22.2904 27.0835Z" fill="white"/>
</svg>
