<svg width="20" height="20" viewBox="0 0 20 20" fill="none" xmlns="http://www.w3.org/2000/svg">
<rect x="1.75" y="1.75" width="16.5" height="16.5" rx="1.75" stroke="#F2F2F2" stroke-width="0.5"/>
<path d="M8.15714 15.1605L8.3484 13.9458L7.9224 13.9359H5.88818L7.30187 4.97202C7.30619 4.94496 7.3205 4.91973 7.34134 4.90181C7.36219 4.8839 7.38892 4.87402 7.41671 4.87402H10.8467C11.9855 4.87402 12.7713 5.11098 13.1816 5.57868C13.3739 5.79809 13.4964 6.02736 13.5557 6.27968C13.6178 6.54444 13.6189 6.86074 13.5582 7.24653L13.5538 7.27469V7.52188L13.7462 7.63086C13.9082 7.71679 14.0368 7.81516 14.1356 7.92779C14.3002 8.11538 14.4066 8.3538 14.4516 8.63646C14.498 8.92718 14.4826 9.27311 14.4066 9.66475C14.3188 10.1153 14.1769 10.5076 13.9854 10.8287C13.809 11.1245 13.5845 11.3698 13.318 11.5601C13.0635 11.7407 12.761 11.8779 12.4191 11.9656C12.0878 12.0519 11.7101 12.0954 11.2958 12.0954H11.0288C10.838 12.0954 10.6525 12.1642 10.507 12.2874C10.3611 12.4132 10.2645 12.585 10.2349 12.773L10.2148 12.8824L9.87693 15.0233L9.86156 15.102C9.85756 15.1269 9.85061 15.1393 9.8404 15.1478C9.83125 15.1553 9.81809 15.1605 9.80524 15.1605H8.15714Z" fill="#253B80"/>
<path d="M13.9279 7.30371C13.9177 7.36916 13.906 7.43608 13.8928 7.50483C13.4404 9.82724 11.8929 10.6295 9.9164 10.6295H8.91008C8.6684 10.6295 8.46471 10.8051 8.42703 11.0435L7.91176 14.3112L7.76587 15.2374C7.74134 15.3939 7.86208 15.5351 8.01998 15.5351H9.80493C10.0163 15.5351 10.1958 15.3815 10.229 15.1731L10.2466 15.0824L10.5827 12.9497L10.6043 12.8328C10.6371 12.6236 10.817 12.47 11.0284 12.47H11.2954C13.0246 12.47 14.3784 11.7679 14.7741 9.73619C14.9394 8.88745 14.8538 8.17878 14.4164 7.68035C14.2841 7.53006 14.1199 7.40536 13.9279 7.30371Z" fill="#179BD7"/>
<path d="M13.4549 7.11548C13.3859 7.09537 13.3145 7.07708 13.2414 7.06063C13.1679 7.04455 13.0925 7.03028 13.015 7.01785C12.7437 6.97397 12.4464 6.95312 12.1279 6.95312H9.43946C9.37325 6.95312 9.31041 6.96811 9.25409 6.99518C9.13009 7.05478 9.03798 7.17217 9.01567 7.31587L8.44367 10.9383L8.42725 11.0439C8.46493 10.8055 8.66862 10.63 8.9103 10.63H9.91662C11.8931 10.63 13.4407 9.82734 13.893 7.50529C13.9065 7.43655 13.9179 7.36963 13.9281 7.30418C13.8137 7.24347 13.6897 7.19155 13.5562 7.14729C13.5234 7.13633 13.4894 7.12573 13.4549 7.11548Z" fill="#222D65"/>
<path d="M9.01557 7.31534C9.03788 7.17163 9.13009 7.05425 9.25399 6.99501C9.31073 6.96794 9.37325 6.95295 9.43936 6.95295H12.1279C12.4464 6.95295 12.7437 6.9738 13.0149 7.01768C13.0925 7.03011 13.1679 7.04437 13.2414 7.06046C13.3145 7.07692 13.3858 7.09521 13.4549 7.11531C13.4893 7.12555 13.5233 7.13615 13.5565 7.14676C13.69 7.19101 13.814 7.2433 13.9284 7.30364C14.0631 6.44539 13.9274 5.86105 13.4634 5.33191C12.9518 4.74939 12.0284 4.5 10.8469 4.5H7.41683C7.17546 4.5 6.96967 4.67552 6.9323 4.91431L5.50367 13.9703C5.47546 14.1494 5.61367 14.3111 5.7943 14.3111H7.91199L8.44367 10.9377L9.01557 7.31534Z" fill="#253B80"/>
</svg>
