<svg width="24" height="24" viewBox="0 0 24 24" fill="none" xmlns="http://www.w3.org/2000/svg">
<path d="M16.9604 6.1709C18.9604 7.5609 20.3405 9.7709 20.6205 12.3209" stroke="white" stroke-width="1.63636" stroke-linecap="round" stroke-linejoin="round"/>
<path d="M3.49023 12.3707C3.75023 9.8307 5.11023 7.6207 7.09023 6.2207" stroke="white" stroke-width="1.63636" stroke-linecap="round" stroke-linejoin="round"/>
<path d="M8.18994 20.9404C9.34994 21.5304 10.6699 21.8604 12.0599 21.8604C13.3999 21.8604 14.6599 21.5604 15.7899 21.0104" stroke="white" stroke-width="1.63636" stroke-linecap="round" stroke-linejoin="round"/>
<path d="M12.0603 7.70062C13.5956 7.70062 14.8403 6.45598 14.8403 4.92063C14.8403 3.38527 13.5956 2.14062 12.0603 2.14062C10.5249 2.14062 9.28027 3.38527 9.28027 4.92063C9.28027 6.45598 10.5249 7.70062 12.0603 7.70062Z" stroke="white" stroke-width="1.63636" stroke-linecap="round" stroke-linejoin="round"/>
<path d="M4.83029 19.9194C6.36564 19.9194 7.61029 18.6747 7.61029 17.1394C7.61029 15.604 6.36564 14.3594 4.83029 14.3594C3.29494 14.3594 2.05029 15.604 2.05029 17.1394C2.05029 18.6747 3.29494 19.9194 4.83029 19.9194Z" stroke="white" stroke-width="1.63636" stroke-linecap="round" stroke-linejoin="round"/>
<path d="M19.1696 19.9194C20.705 19.9194 21.9497 18.6747 21.9497 17.1394C21.9497 15.604 20.705 14.3594 19.1696 14.3594C17.6343 14.3594 16.3896 15.604 16.3896 17.1394C16.3896 18.6747 17.6343 19.9194 19.1696 19.9194Z" stroke="white" stroke-width="1.63636" stroke-linecap="round" stroke-linejoin="round"/>
</svg>
