<svg width="63" height="68" viewBox="0 0 63 68" fill="none" xmlns="http://www.w3.org/2000/svg">
<g filter="url(#filter0_d_8638_3919)">
<path d="M28.6642 31.5745C21.2184 31.5745 15.1824 25.8495 15.1824 18.7873C15.1824 11.7251 21.2184 6 28.6642 6C36.11 6 42.1461 11.7251 42.1461 18.7873C42.1461 25.8495 36.11 31.5745 28.6642 31.5745Z" fill="white"/>
<path d="M36.1035 47.3364H47.6188L46.4368 46.2153C45.8204 45.6307 45.8204 44.6839 46.4368 44.101C47.0532 43.518 48.0496 43.5163 48.6642 44.101L52.5377 47.7749C53.1541 48.3595 53.1541 49.3062 52.5377 49.8892L48.6642 53.5631C48.3578 53.8554 47.955 53.9999 47.5522 53.9999C47.1495 53.9999 46.7467 53.8538 46.4385 53.5615C45.8221 52.9768 45.8221 52.0301 46.4385 51.4471L47.6205 50.326H36.1035C35.2332 50.326 34.5275 49.6567 34.5275 48.8312C34.5275 48.0057 35.2332 47.3364 36.1035 47.3364Z" fill="white"/>
<path d="M20.1366 32.3072C22.6337 33.7289 25.5441 34.5627 28.6628 34.5627C31.7815 34.5627 34.6919 33.7289 37.189 32.3072C41.4862 33.6592 44.9167 36.7916 46.5242 40.7861C45.6539 40.9688 44.8536 41.3724 44.2075 41.9852C43.5035 42.6513 43.0692 43.4784 42.9029 44.3454H36.1015C33.4941 44.3454 31.3735 46.3567 31.3735 48.8298C31.3735 50.2848 32.1178 51.5653 33.2525 52.3858C31.7728 52.4622 30.2441 52.5054 28.6628 52.5054C22.4639 52.5054 17.0091 51.8693 12.5053 51.0521C10.9275 50.7664 9.7998 49.451 9.7998 47.9279V45.8834C9.7998 39.5553 14.1338 34.1973 20.1366 32.3072Z" fill="white"/>
</g>
<defs>
<filter id="filter0_d_8638_3919" x="0.0171957" y="0.130435" width="62.7654" height="67.5652" filterUnits="userSpaceOnUse" color-interpolation-filters="sRGB">
<feFlood flood-opacity="0" result="BackgroundImageFix"/>
<feColorMatrix in="SourceAlpha" type="matrix" values="0 0 0 0 0 0 0 0 0 0 0 0 0 0 0 0 0 0 127 0" result="hardAlpha"/>
<feOffset dy="3.91304"/>
<feGaussianBlur stdDeviation="4.8913"/>
<feComposite in2="hardAlpha" operator="out"/>
<feColorMatrix type="matrix" values="0 0 0 0 0.109804 0 0 0 0 0 0 0 0 0 0.0564706 0 0 0 0.26 0"/>
<feBlend mode="normal" in2="BackgroundImageFix" result="effect1_dropShadow_8638_3919"/>
<feBlend mode="normal" in="SourceGraphic" in2="effect1_dropShadow_8638_3919" result="shape"/>
</filter>
</defs>
</svg>
