<svg width="50" height="50" viewBox="0 0 50 50" fill="none" xmlns="http://www.w3.org/2000/svg">
<path d="M23.9295 45.8487L23.9117 45.8433L23.8937 45.8384C13.6689 43.0211 6.27598 33.4545 6.27598 23.1463V14.0004C6.27598 12.2366 7.61886 10.2262 9.263 9.54519C9.26369 9.5449 9.26439 9.54461 9.26508 9.54432L20.862 4.79725C20.8624 4.79707 20.8629 4.79688 20.8633 4.7967C23.5467 3.70526 26.4786 3.70682 29.1368 4.79597L29.1373 4.79614L40.7369 9.54432C40.7375 9.54459 40.7382 9.54486 40.7388 9.54513C42.383 10.2261 43.726 12.2366 43.726 14.0004V23.1463C43.726 33.4314 36.3141 43.0012 26.1052 45.8392L26.0888 45.8438L26.0725 45.8487C25.7459 45.9481 25.386 45.9963 25.001 45.9963C24.616 45.9963 24.2561 45.9481 23.9295 45.8487ZM20.9936 5.12068L20.9914 5.12155L9.38732 9.87148L9.38731 9.87146L9.37921 9.87483C8.5546 10.2184 7.88045 10.8829 7.42301 11.5623C6.96611 12.241 6.60098 13.1195 6.60098 14.0213V23.1672C6.60098 33.38 13.9144 42.7431 23.9685 45.5337C24.6381 45.7312 25.3639 45.7312 26.0334 45.5337C36.0875 42.7432 43.401 33.38 43.401 23.1672V14.0213C43.401 13.1195 43.0359 12.241 42.579 11.5623C42.1215 10.8829 41.4474 10.2184 40.6228 9.87481L40.6147 9.87148L29.0105 5.12155L29.0084 5.12068C27.7181 4.59501 26.3722 4.32967 25.001 4.32967C23.6298 4.32967 22.2839 4.59501 20.9936 5.12068Z" fill="white" stroke="white" stroke-width="2.8"/>
<path d="M15.0833 26.1406C14.8125 26.1406 14.5417 26.0781 14.2917 25.974C14.0417 25.8698 13.8125 25.724 13.6042 25.5365C13.4167 25.3281 13.25 25.099 13.1458 24.849C13.0417 24.599 13 24.3281 13 24.0573C13 23.5156 13.2292 22.974 13.6042 22.5781C14.375 21.8073 15.7708 21.8073 16.5625 22.5781C16.9375 22.974 17.1667 23.5156 17.1667 24.0573C17.1667 24.3281 17.1042 24.599 17 24.849C16.8958 25.099 16.75 25.3281 16.5625 25.5365C16.3542 25.724 16.125 25.8698 15.875 25.974C15.625 26.0781 15.3542 26.1406 15.0833 26.1406Z" fill="white"/>
<path d="M21.7503 26.1406C21.4795 26.1406 21.2087 26.0781 20.9587 25.974C20.7087 25.8698 20.4795 25.724 20.2712 25.5365C20.0837 25.3281 19.9378 25.099 19.8128 24.849C19.7295 24.599 19.667 24.3281 19.667 24.0573C19.667 23.5156 19.8962 22.974 20.2712 22.5781C21.042 21.8073 22.4587 21.8073 23.2295 22.5781C23.6045 22.974 23.8337 23.5156 23.8337 24.0573C23.8337 24.3281 23.7712 24.599 23.667 24.849C23.5628 25.099 23.417 25.3281 23.2295 25.5365C23.0212 25.724 22.792 25.8698 22.542 25.974C22.292 26.0781 22.0212 26.1406 21.7503 26.1406Z" fill="white"/>
<path d="M28.4163 26.1406C28.1455 26.1406 27.8747 26.0781 27.6247 25.974C27.3747 25.8698 27.1455 25.724 26.9372 25.5365C26.7497 25.3281 26.6038 25.099 26.4788 24.849C26.3955 24.599 26.333 24.3281 26.333 24.0573C26.333 23.5156 26.5622 22.974 26.9372 22.5781C27.708 21.8073 29.1247 21.8073 29.8955 22.5781C30.2705 22.974 30.4997 23.5156 30.4997 24.0573C30.4997 24.3281 30.4372 24.599 30.333 24.849C30.2288 25.099 30.083 25.3281 29.8955 25.5365C29.6872 25.724 29.458 25.8698 29.208 25.974C28.958 26.0781 28.6872 26.1406 28.4163 26.1406Z" fill="white"/>
<path d="M35.0833 26.1406C34.8125 26.1406 34.5417 26.0781 34.2917 25.974C34.0417 25.8698 33.8125 25.724 33.6042 25.5365C33.4167 25.3281 33.2708 25.099 33.1458 24.849C33.0625 24.599 33 24.3281 33 24.0573C33 23.5156 33.2292 22.974 33.6042 22.5781C34.375 21.8073 35.7917 21.8073 36.5625 22.5781C36.9375 22.974 37.1667 23.5156 37.1667 24.0573C37.1667 24.3281 37.1042 24.599 37 24.849C36.8958 25.099 36.75 25.3281 36.5625 25.5365C36.3542 25.724 36.125 25.8698 35.875 25.974C35.625 26.0781 35.3542 26.1406 35.0833 26.1406Z" fill="white"/>
</svg>
