<svg width="26" height="27" viewBox="0 0 26 27" fill="none" xmlns="http://www.w3.org/2000/svg">
<g clip-path="url(#clip0_8638_5671)">
<path d="M16.5186 19.4766L14.6035 17.5615L17.0932 15.0719L19.0082 16.987L16.5186 19.4766Z" fill="#344A5E"/>
<path d="M9.47882 18.3746C14.1157 18.3746 17.8746 14.6157 17.8746 9.97882C17.8746 5.34194 14.1157 1.58301 9.47882 1.58301C4.84194 1.58301 1.08301 5.34194 1.08301 9.97882C1.08301 14.6157 4.84194 18.3746 9.47882 18.3746Z" fill="#8AD7F8"/>
<path d="M16.1958 16.6958C12.5125 20.3791 6.4458 20.3791 2.76249 16.6958C-0.920829 13.0125 -0.920829 6.9458 2.76249 3.26249C6.4458 -0.420829 12.5125 -0.420829 16.1958 3.26249C19.8791 6.9458 19.9333 13.0125 16.1958 16.6958ZM4.3333 4.8333C1.46249 7.70412 1.46249 12.3083 4.3333 15.1791C7.20412 18.0499 11.8083 18.0499 14.6791 15.1791C17.5499 12.3083 17.5499 7.70412 14.6791 4.8333C11.8083 1.96249 7.14999 1.96249 4.3333 4.8333Z" fill="#415A6B"/>
<path d="M19.3374 16.5332C22.2082 18.5374 24.3749 20.1082 25.0249 20.8124C26.3249 22.1124 26.3249 24.2249 25.0249 25.5249C23.7249 26.8249 21.6124 26.8249 20.3124 25.5249C19.6624 24.8749 18.0374 22.7082 16.0332 19.8374L19.3374 16.5332Z" fill="#F3705A"/>
<path d="M17.1171 21.3546C16.7921 20.8671 16.4129 20.3796 16.0879 19.8921L19.3921 16.5879C19.9338 16.9671 20.4213 17.2921 20.8546 17.6171L17.1171 21.3546Z" fill="#F05540"/>
<path d="M16.6288 20.433L19.933 17.1288C20.258 16.8038 20.258 16.2621 19.933 15.9371C19.608 15.6121 19.0663 15.6121 18.7413 15.9371L15.4371 19.2413C15.1121 19.5663 15.1121 20.108 15.4371 20.433C15.7621 20.8122 16.3038 20.8122 16.6288 20.433Z" fill="#F3705A"/>
<path d="M9.47941 6.78376C10.8854 6.78376 12.0252 6.25022 12.0252 5.59207C12.0252 4.93393 10.8854 4.40039 9.47941 4.40039C8.0734 4.40039 6.93359 4.93393 6.93359 5.59207C6.93359 6.25022 8.0734 6.78376 9.47941 6.78376Z" fill="white"/>
</g>
<defs>
<clipPath id="clip0_8638_5671">
<rect width="26" height="26" fill="white" transform="translate(0 0.5)"/>
</clipPath>
</defs>
</svg>
