<svg width="24" height="24" viewBox="0 0 24 24" fill="none" xmlns="http://www.w3.org/2000/svg">
<path d="M21.6602 10.4405L20.6802 14.6205C19.8402 18.2305 18.1802 19.6905 15.0602 19.3905C14.5602 19.3505 14.0202 19.2605 13.4402 19.1205L11.7602 18.7205C7.59018 17.7305 6.30018 15.6705 7.28018 11.4905L8.26018 7.3005C8.46018 6.4505 8.70018 5.7105 9.00018 5.1005C10.1702 2.6805 12.1602 2.0305 15.5002 2.8205L17.1702 3.2105C21.3602 4.1905 22.6402 6.2605 21.6602 10.4405Z" stroke="white" stroke-width="1.8" stroke-linecap="round" stroke-linejoin="round"/>
<path d="M15.0603 19.3906C14.4403 19.8106 13.6603 20.1606 12.7103 20.4706L11.1303 20.9906C7.16034 22.2706 5.07034 21.2006 3.78034 17.2306L2.50034 13.2806C1.22034 9.31059 2.28034 7.21059 6.25034 5.93059L7.83034 5.41059C8.24034 5.28059 8.63034 5.17059 9.00034 5.10059C8.70034 5.71059 8.46034 6.45059 8.26034 7.30059L7.28034 11.4906C6.30034 15.6706 7.59034 17.7306 11.7603 18.7206L13.4403 19.1206C14.0203 19.2606 14.5603 19.3506 15.0603 19.3906Z" stroke="white" stroke-width="1.8" stroke-linecap="round" stroke-linejoin="round"/>
<path d="M12.6396 8.53027L17.4896 9.76027" stroke="white" stroke-width="1.8" stroke-linecap="round" stroke-linejoin="round"/>
<path d="M11.6602 12.3994L14.5602 13.1394" stroke="white" stroke-width="1.8" stroke-linecap="round" stroke-linejoin="round"/>
</svg>
