<svg width="58" height="62" viewBox="0 0 58 62" fill="none" xmlns="http://www.w3.org/2000/svg">
<g filter="url(#filter0_d_8638_3668)">
<path d="M10.25 15.3601C10.25 14.3508 10.9695 13.5326 11.8571 13.5326L17.4076 13.5317C18.5105 13.4999 19.4834 12.7025 19.8586 11.5229C19.8685 11.4919 19.8798 11.4536 19.9205 11.3148L20.1597 10.4988C20.306 9.99851 20.4335 9.56262 20.612 9.17301C21.3169 7.63383 22.621 6.56499 24.1281 6.29135C24.5095 6.22208 24.9135 6.22237 25.3773 6.2227H32.6231C33.0869 6.22237 33.4908 6.22208 33.8723 6.29135C35.3794 6.56499 36.6835 7.63383 37.3883 9.17301C37.5669 9.56262 37.6944 9.99851 37.8406 10.4988L38.0798 11.3148C38.1204 11.4536 38.1319 11.4919 38.1417 11.5229C38.5171 12.7025 39.6829 13.5008 40.7856 13.5326H46.1429C47.0304 13.5326 47.75 14.3508 47.75 15.3601C47.75 16.3694 47.0304 17.1876 46.1429 17.1876H11.8571C10.9695 17.1876 10.25 16.3694 10.25 15.3601Z" fill="white"/>
<path fill-rule="evenodd" clip-rule="evenodd" d="M28.1575 47.8895H29.8425C35.6398 47.8895 38.5385 47.8895 40.4231 46.0439C42.3079 44.1983 42.5006 41.1708 42.8862 35.1156L43.4419 26.3908C43.6512 23.1054 43.7558 21.4627 42.8102 20.4218C41.8648 19.3808 40.2681 19.3808 37.075 19.3808H20.9251C17.7318 19.3808 16.1352 19.3808 15.1897 20.4218C14.2442 21.4627 14.3488 23.1054 14.5581 26.3908L15.1137 35.1156C15.4994 41.1708 15.6922 44.1983 17.5769 46.0439C19.4615 47.8895 22.3602 47.8895 28.1575 47.8895ZM25.3465 27.4489C25.2606 26.5452 24.4949 25.8856 23.6362 25.976C22.7775 26.0664 22.1511 26.8725 22.2369 27.7762L23.2786 38.7412C23.3645 39.645 24.1301 40.3045 24.9888 40.2141C25.8475 40.1237 26.474 39.3177 26.3881 38.4139L25.3465 27.4489ZM34.3638 25.976C35.2225 26.0664 35.849 26.8725 35.7631 27.7762L34.7215 38.7412C34.6356 39.645 33.8698 40.3045 33.0112 40.2141C32.1525 40.1237 31.526 39.3177 31.6119 38.4139L32.6535 27.4489C32.7394 26.5452 33.5052 25.8856 34.3638 25.976Z" fill="white"/>
</g>
<defs>
<filter id="filter0_d_8638_3668" x="0.467391" y="0.353091" width="57.0652" height="61.2322" filterUnits="userSpaceOnUse" color-interpolation-filters="sRGB">
<feFlood flood-opacity="0" result="BackgroundImageFix"/>
<feColorMatrix in="SourceAlpha" type="matrix" values="0 0 0 0 0 0 0 0 0 0 0 0 0 0 0 0 0 0 127 0" result="hardAlpha"/>
<feOffset dy="3.91304"/>
<feGaussianBlur stdDeviation="4.8913"/>
<feComposite in2="hardAlpha" operator="out"/>
<feColorMatrix type="matrix" values="0 0 0 0 0.109804 0 0 0 0 0 0 0 0 0 0.0564706 0 0 0 0.26 0"/>
<feBlend mode="normal" in2="BackgroundImageFix" result="effect1_dropShadow_8638_3668"/>
<feBlend mode="normal" in="SourceGraphic" in2="effect1_dropShadow_8638_3668" result="shape"/>
</filter>
</defs>
</svg>
