<svg width="24" height="16" viewBox="0 0 24 16" fill="none" xmlns="http://www.w3.org/2000/svg">
<rect x="0.166667" y="0.166667" width="23" height="15.6667" rx="1.16667" fill="white" stroke="#D9D9D9" stroke-width="0.333333"/>
<path fill-rule="evenodd" clip-rule="evenodd" d="M7.08351 10.8392H5.66996L4.60997 6.79526C4.55966 6.60924 4.45283 6.44479 4.29569 6.36728C3.90354 6.1725 3.47141 6.01748 3 5.9393V5.78361H5.27711C5.59139 5.78361 5.8271 6.01748 5.86638 6.2891L6.41636 9.20611L7.82922 5.78361H9.20348L7.08351 10.8392ZM9.98919 10.8392H8.65422L9.75349 5.78361H11.0885L9.98919 10.8392ZM12.8156 7.18413C12.8549 6.91184 13.0906 6.75615 13.3656 6.75615C13.7977 6.71706 14.2684 6.79524 14.6613 6.98935L14.897 5.90087C14.5041 5.74517 14.072 5.66699 13.6798 5.66699C12.3841 5.66699 11.4413 6.36726 11.4413 7.33915C11.4413 8.07851 12.1092 8.46673 12.5806 8.7006C13.0906 8.9338 13.287 9.08949 13.2477 9.32269C13.2477 9.67249 12.8549 9.82818 12.4627 9.82818C11.9913 9.82818 11.5199 9.71158 11.0884 9.5168L10.8527 10.606C11.3242 10.8001 11.8342 10.8783 12.3056 10.8783C13.7584 10.9167 14.6613 10.2171 14.6613 9.167C14.6613 7.84464 12.8156 7.76713 12.8156 7.18413ZM19.3333 10.8392L18.2733 5.78361H17.1348C16.8991 5.78361 16.6634 5.9393 16.5848 6.1725L14.6219 10.8392H15.9962L16.2705 10.1005H17.9591L18.1162 10.8392H19.3333ZM17.3312 7.14502L17.7234 9.05038H16.6241L17.3312 7.14502Z" fill="#172B85"/>
</svg>
