<svg width="24" height="24" viewBox="0 0 24 24" fill="none" xmlns="http://www.w3.org/2000/svg">
<path d="M23.1047 18.2721L14.3716 3.14988C14.1346 2.7394 13.7937 2.39854 13.3832 2.16156C12.9727 1.92457 12.507 1.7998 12.033 1.7998C11.559 1.7998 11.0934 1.92457 10.6829 2.16156C10.2724 2.39854 9.9315 2.7394 9.69448 3.14988L0.961395 18.2721C0.724296 18.6828 0.599518 19.1486 0.599609 19.6228C0.599701 20.097 0.72466 20.5628 0.961917 20.9734C1.19917 21.384 1.54036 21.7248 1.95117 21.9617C2.36197 22.1986 2.8279 22.3231 3.3021 22.3227H20.764C21.238 22.3227 21.7036 22.1979 22.1141 21.9609C22.5246 21.7239 22.8655 21.383 23.1025 20.9725C23.3395 20.562 23.4643 20.0963 23.4643 19.6223C23.4643 19.1483 23.3395 18.6826 23.1025 18.2721H23.1047Z" fill="url(#paint0_linear_8638_5687)"/>
<path d="M12.6019 14.8516C12.8535 14.8528 13.0963 14.7598 13.2829 14.5911C13.4694 14.4223 13.5861 14.1899 13.6101 13.9395L14.1765 8.27466C14.1967 8.07419 14.1746 7.87172 14.1116 7.68034C14.0486 7.48896 13.9461 7.31293 13.8108 7.16362C13.6755 7.01431 13.5104 6.89505 13.3262 6.81354C13.1419 6.73203 12.9426 6.69009 12.7411 6.69043H12.4627C12.2614 6.69043 12.0624 6.73262 11.8784 6.81427C11.6944 6.89593 11.5296 7.01524 11.3946 7.16451C11.2596 7.31379 11.1573 7.4897 11.0945 7.68092C11.0316 7.87213 11.0096 8.07439 11.0297 8.27466L11.5962 13.9395C11.6201 14.1895 11.7364 14.4216 11.9225 14.5903C12.1085 14.759 12.3508 14.8522 12.6019 14.8516Z" fill="url(#paint1_linear_8638_5687)"/>
<path d="M12.6021 18.6925C13.5301 18.6925 14.2824 17.9403 14.2824 17.0123C14.2824 16.0843 13.5301 15.332 12.6021 15.332C11.6741 15.332 10.9219 16.0843 10.9219 17.0123C10.9219 17.9403 11.6741 18.6925 12.6021 18.6925Z" fill="url(#paint2_linear_8638_5687)"/>
<defs>
<linearGradient id="paint0_linear_8638_5687" x1="5.62444" y1="10.6224" x2="21.769" y2="21.9927" gradientUnits="userSpaceOnUse">
<stop stop-color="#FED200"/>
<stop offset="1" stop-color="#F59815"/>
</linearGradient>
<linearGradient id="paint1_linear_8638_5687" x1="10.8343" y1="7.93285" x2="14.3062" y2="12.9866" gradientUnits="userSpaceOnUse">
<stop stop-color="#3E4154"/>
<stop offset="1" stop-color="#1B2129"/>
</linearGradient>
<linearGradient id="paint2_linear_8638_5687" x1="11.5359" y1="15.946" x2="13.5987" y2="18.0089" gradientUnits="userSpaceOnUse">
<stop stop-color="#3E4154"/>
<stop offset="1" stop-color="#1B2129"/>
</linearGradient>
</defs>
</svg>
