<svg width="115" height="115" viewBox="0 0 115 115" fill="none" xmlns="http://www.w3.org/2000/svg">
<path d="M112.413 50.2568L104.595 41.1741C103.1 39.4495 101.893 36.2303 101.893 33.9309V24.1583C101.893 18.0649 96.892 13.0636 90.7985 13.0636H81.026C78.7841 13.0636 75.5074 11.8564 73.7828 10.3618L64.7001 2.54374C60.7336 -0.847913 54.2377 -0.847913 50.2137 2.54374L41.1885 10.4193C39.4639 11.8564 36.1872 13.0636 33.9453 13.0636H24.0002C17.9068 13.0636 12.9055 18.0649 12.9055 24.1583V33.9884C12.9055 36.2303 11.6983 39.4495 10.2612 41.1741L2.50062 50.3143C-0.833542 54.2808 -0.833542 60.7192 2.50062 64.6857L10.2612 73.8259C11.6983 75.5505 12.9055 78.7697 12.9055 81.0116V90.8417C12.9055 96.9351 17.9068 101.936 24.0002 101.936H33.9453C36.1872 101.936 39.4639 103.144 41.1885 104.638L50.2712 112.456C54.2377 115.848 60.7336 115.848 64.7576 112.456L73.8403 104.638C75.5649 103.144 78.7841 101.936 81.0835 101.936H90.856C96.9495 101.936 101.951 96.9351 101.951 90.8417V81.0691C101.951 78.8272 103.158 75.5505 104.653 73.8259L112.471 64.7432C115.805 60.7767 115.805 54.2233 112.413 50.2568Z" fill="#902368"/>
<path d="M59.5686 66.1213C59.5686 67.2734 58.6347 68.2073 57.4827 68.2073C56.3307 68.2073 55.3968 67.2734 55.3968 66.1213C55.3968 64.9693 56.3307 64.0354 57.4827 64.0354C58.6347 64.0354 59.5686 64.9693 59.5686 66.1213Z" fill="white" stroke="white" stroke-width="2.92636"/>
<path d="M45.3943 52.4485V53.9117H46.8575H46.8585H46.8595H46.8606H46.8616H46.8626H46.8636H46.8646H46.8657H46.8667H46.8677H46.8687H46.8697H46.8707H46.8718H46.8728H46.8738H46.8748H46.8758H46.8768H46.8778H46.8788H46.8798H46.8809H46.8819H46.8829H46.8839H46.8849H46.8859H46.8869H46.8879H46.8889H46.8899H46.8909H46.8919H46.8929H46.8939H46.8949H46.896H46.897H46.898H46.899H46.9H46.901H46.902H46.903H46.904H46.905H46.906H46.907H46.908H46.909H46.91H46.911H46.9119H46.9129H46.9139H46.9149H46.9159H46.9169H46.9179H46.9189H46.9199H46.9209H46.9219H46.9229H46.9239H46.9249H46.9259H46.9269H46.9278H46.9288H46.9298H46.9308H46.9318H46.9328H46.9338H46.9348H46.9358H46.9367H46.9377H46.9387H46.9397H46.9407H46.9417H46.9427H46.9436H46.9446H46.9456H46.9466H46.9476H46.9486H46.9496H46.9505H46.9515H46.9525H46.9535H46.9545H46.9554H46.9564H46.9574H46.9584H46.9594H46.9603H46.9613H46.9623H46.9633H46.9643H46.9652H46.9662H46.9672H46.9682H46.9692H46.9701H46.9711H46.9721H46.9731H46.974H46.975H46.976H46.977H46.9779H46.9789H46.9799H46.9809H46.9818H46.9828H46.9838H46.9847H46.9857H46.9867H46.9877H46.9886H46.9896H46.9906H46.9916H46.9925H46.9935H46.9945H46.9954H46.9964H46.9974H46.9983H46.9993H47.0003H47.0013H47.0022H47.0032H47.0042H47.0051H47.0061H47.0071H47.008H47.009H47.01H47.0109H47.0119H47.0129H47.0138H47.0148H47.0158H47.0167H47.0177H47.0187H47.0196H47.0206H47.0216H47.0225H47.0235H47.0244H47.0254H47.0264H47.0273H47.0283H47.0293H47.0302H47.0312H47.0322H47.0331H47.0341H47.035H47.036H47.037H47.0379H47.0389H47.0399H47.0408H47.0418H47.0427H47.0437H47.0447H47.0456H47.0466H47.0475H47.0485H47.0495H47.0504H47.0514H47.0523H47.0533H47.0543H47.0552H47.0562H47.0571H47.0581H47.0591H47.06H47.061H47.0619H47.0629H47.0639H47.0648H47.0658H47.0667H47.0677H47.0687H47.0696H47.0706H47.0715H47.0725H47.0734H47.0744H47.0754H47.0763H47.0773H47.0782H47.0792H47.0801H47.0811H47.0821H47.083H47.084H47.0849H47.0859H47.0869H47.0878H47.0888H47.0897H47.0907H47.0916H47.0926H47.0936H47.0945H47.0955H47.0964H47.0974H47.0983H47.0993H47.1003H47.1012H47.1022H47.1031H47.1041H47.105H47.106H47.1069H47.1079H47.1089H47.1098H47.1108H47.1117H47.1127H47.1136H47.1146H47.1156H47.1165H47.1175H47.1184H47.1194H47.1203H47.1213H47.1223H47.1232H47.1242H47.1251H47.1261H47.127H47.128H47.129H47.1299H47.1309H47.1318H47.1328H47.1337H47.1347H47.1357H47.1366H47.1376H47.1385H47.1395H47.1405H47.1414H47.1424H47.1433H47.1443H47.1452H47.1462H47.1472H47.1481H47.1491H47.15H47.151H47.152H47.1529H47.1539H47.1548H47.1558H47.1567H47.1577H47.1587H47.1596H47.1606H47.1615H47.1625H47.1635H47.1644H47.1654H47.1663H47.1673H47.1683H47.1692H47.1702H47.1712H47.1721H47.1731H47.174H47.175H47.176H47.1769H47.1779H47.1788H47.1798H47.1808H47.1817H47.1827H47.1837H47.1846H47.1856H47.1865H47.1875H47.1885H47.1894H47.1904H47.1914H47.1923H47.1933H47.1943H47.1952H47.1962H47.1972H47.1981H47.1991H47.2H47.201H47.202H47.2029H47.2039H47.2049H47.2058H47.2068H47.2078H47.2087H47.2097H47.2107H47.2117H47.2126H47.2136H47.2146H47.2155H47.2165H47.2175H47.2184H47.2194H47.2204H47.2213H47.2223H47.2233H47.2243H47.2252H47.2262H47.2272H47.2281H47.2291H47.2301H47.2311H47.232H47.233H47.234H47.235H47.2359H47.2369H47.2379H47.2389H47.2398H47.2408H47.2418H47.2428H47.2437H47.2447H47.2457H47.2467H47.2476H47.2486H47.2496H47.2506H47.2515H47.2525H47.2535H47.2545H47.2555H47.2564H47.2574H47.2584H47.2594H47.2604H47.2613H47.2623H47.2633H47.2643H47.2653H47.2663H47.2672H47.2682H47.2692H47.2702H47.2712H47.2722H47.2731H47.2741H47.2751H47.2761H47.2771H47.2781H47.2791H47.2801H47.281H47.282H47.283H47.284H47.285H47.286H47.287H47.288H47.289H47.2899H47.2909H47.2919H47.2929H47.2939H47.2949H47.2959H47.2969H47.2979H47.2989H47.2999H47.3009H47.3019H47.3029H47.3039H47.3049H47.3059H47.3069H47.3079H47.3088H47.3098H47.3108H47.3118H47.3128H47.3138H47.3148H47.3158H47.3169H47.3179H47.3189H47.3199H47.3209H47.3219H47.3229H47.3239H47.3249H47.3259H47.3269H47.3279H47.3289H47.3299H47.3309H47.3319H47.3329H47.3339H47.335H47.336H47.337H47.338H47.339H47.34H47.341H47.342H47.343H47.3441H47.3451H47.3461H47.3471H47.3481H47.3491H47.3502H47.3512H47.3522H47.3532H47.3542H47.3552H47.3563H47.3573H47.3583H67.6077C72.0197 53.9117 74.3935 54.6083 75.7451 55.9599C77.0968 57.3115 77.7933 59.6853 77.7933 64.0973V68.1472C77.7933 72.5593 77.0968 74.9331 75.7451 76.2847C74.3935 77.6363 72.0197 78.3329 67.6077 78.3329H47.3583C42.9462 78.3329 40.5725 77.6363 39.2208 76.2847C37.8692 74.9331 37.1727 72.5593 37.1727 68.1472V64.0973C37.1727 60.3599 37.6799 58.0741 38.6748 56.6418C39.6065 55.3006 41.1561 54.4507 43.9907 54.0964L45.2724 53.9361V52.6445V49.9228C45.2724 47.045 45.633 44.018 47.2463 41.7227C48.7848 39.5337 51.6859 37.7122 57.483 37.7122C61.8451 37.7122 64.8626 38.6582 66.7756 40.2885C68.6449 41.8814 69.6936 44.3306 69.6936 47.8979C69.6936 47.9147 69.6905 47.924 69.6885 47.9288C69.6861 47.9345 69.6828 47.9395 69.6785 47.9437C69.6742 47.948 69.6692 47.9514 69.6636 47.9538C69.6587 47.9558 69.6495 47.9588 69.6326 47.9588C69.6158 47.9588 69.6065 47.9558 69.6016 47.9538C69.596 47.9514 69.591 47.948 69.5867 47.9437C69.5846 47.9417 69.5828 47.9394 69.5812 47.937C69.5794 47.9345 69.5779 47.9317 69.5767 47.9288C69.5747 47.924 69.5716 47.9147 69.5716 47.8979C69.5716 45.7963 69.2701 43.1826 67.4209 41.1188C65.5507 39.0315 62.4024 37.8341 57.483 37.8341C52.8727 37.8341 49.6936 38.9433 47.7408 41.2792C45.8379 43.5554 45.3943 46.6665 45.3943 49.9228V52.4485ZM49.4442 66.1223C49.4442 70.5416 53.0356 74.1611 57.483 74.1611C61.9272 74.1611 65.5218 70.5666 65.5218 66.1223C65.5218 61.6998 61.9055 58.0835 57.483 58.0835C53.0636 58.0835 49.4442 61.6749 49.4442 66.1223Z" fill="white" stroke="white" stroke-width="2.92636"/>
</svg>
