<svg width="93" height="93" viewBox="0 0 93 93" fill="none" xmlns="http://www.w3.org/2000/svg">
<path d="M90.9227 40.6425L84.6003 33.2973C83.3916 31.9026 82.4153 29.2993 82.4153 27.4398V19.5367C82.4153 14.609 78.3708 10.5645 73.443 10.5645H65.54C63.727 10.5645 61.0771 9.58823 59.6825 8.37953L52.3373 2.05711C49.1296 -0.685703 43.8764 -0.685703 40.6222 2.05711L33.3236 8.42602C31.9289 9.58823 29.2791 10.5645 27.466 10.5645H19.4235C14.4958 10.5645 10.4513 14.609 10.4513 19.5367V27.4863C10.4513 29.2993 9.47503 31.9026 8.31282 33.2973L2.03689 40.6889C-0.659433 43.8966 -0.659433 49.1033 2.03689 52.311L8.31282 59.7027C9.47503 61.0974 10.4513 63.7007 10.4513 65.5137V73.4632C10.4513 78.391 14.4958 82.4355 19.4235 82.4355H27.466C29.2791 82.4355 31.9289 83.4118 33.3236 84.6205L40.6687 90.9429C43.8764 93.6857 49.1296 93.6857 52.3838 90.9429L59.729 84.6205C61.1236 83.4118 63.727 82.4355 65.5865 82.4355H73.4895C78.4173 82.4355 82.4618 78.391 82.4618 73.4632V65.5602C82.4618 63.7472 83.438 61.0974 84.6467 59.7027L90.9692 52.3575C93.6655 49.1498 93.6655 43.8502 90.9227 40.6425Z" fill="#902368"/>
<g filter="url(#filter0_d_8638_3191)">
<path fill-rule="evenodd" clip-rule="evenodd" d="M33.4164 42.7692C36.21 44.39 38.0258 45.7356 40.1939 48.1394C45.8055 39.0381 51.9028 33.9982 59.8221 26.8358L60.5995 26.5361H69.2718C57.648 39.5397 48.6294 50.2618 40.5583 65.9443C36.3558 56.8981 32.6087 50.6532 24.2339 44.861L33.4164 42.7692Z" fill="white"/>
</g>
<defs>
<filter id="filter0_d_8638_3191" x="13.2192" y="19.9273" width="67.0675" height="61.4376" filterUnits="userSpaceOnUse" color-interpolation-filters="sRGB">
<feFlood flood-opacity="0" result="BackgroundImageFix"/>
<feColorMatrix in="SourceAlpha" type="matrix" values="0 0 0 0 0 0 0 0 0 0 0 0 0 0 0 0 0 0 127 0" result="hardAlpha"/>
<feOffset dy="4.40589"/>
<feGaussianBlur stdDeviation="5.50736"/>
<feComposite in2="hardAlpha" operator="out"/>
<feColorMatrix type="matrix" values="0 0 0 0 0.109804 0 0 0 0 0 0 0 0 0 0.0564706 0 0 0 0.26 0"/>
<feBlend mode="normal" in2="BackgroundImageFix" result="effect1_dropShadow_8638_3191"/>
<feBlend mode="normal" in="SourceGraphic" in2="effect1_dropShadow_8638_3191" result="shape"/>
</filter>
</defs>
</svg>
